<?xml version="1.0" encoding="UTF-8"?>
<svg version="1.1" xmlns="http://www.w3.org/2000/svg" width="500" height="500">
<path d="M0 0 C0.66 -0.0103125 1.32 -0.020625 2 -0.03125 C5.03318038 0.77443854 6.14918888 1.97324047 8 4.5 C8.4490016 7.20552245 8.69369634 9.54230591 8.75 12.25 C8.77964844 12.94738281 8.80929688 13.64476562 8.83984375 14.36328125 C8.91018458 16.07490813 8.95739946 17.78745815 9 19.5 C10.8253125 19.0359375 10.8253125 19.0359375 12.6875 18.5625 C28.83224537 15.05057573 42.64460205 16.3698664 56.6875 25.1875 C69.66225439 38.16225439 72.03897329 53.94861739 73 71.5 C73.68964844 70.47261719 74.37929687 69.44523437 75.08984375 68.38671875 C83.24280205 56.32804681 92.05697637 45.14971787 102 34.5 C102.83144531 33.6028125 103.66289062 32.705625 104.51953125 31.78125 C116.8796155 18.89635983 132.60586129 6.61935073 151.125 6.125 C159.20563788 6.09371002 164.99492897 7.87378704 171.0234375 13.33203125 C181.16114937 24.17553319 183.0181521 38.11084974 184 52.5 C184.66386719 51.88511719 185.32773437 51.27023438 186.01171875 50.63671875 C187.33623047 49.42435547 187.33623047 49.42435547 188.6875 48.1875 C189.55761719 47.38699219 190.42773438 46.58648437 191.32421875 45.76171875 C194 43.5 194 43.5 196.63183594 42.36035156 C199.39351347 40.62126532 199.39351347 40.62126532 199.59594727 36.91821289 C199.61004556 35.43639503 199.59855825 33.95419234 199.56640625 32.47265625 C199.57204086 31.68733017 199.57767548 30.90200409 199.58348083 30.09288025 C199.59995462 27.58214837 199.58437373 25.07317124 199.5625 22.5625 C199.54590413 20.05556196 199.53681524 17.54978737 199.55223083 15.04283142 C199.56150756 13.48355242 199.55235563 11.92402812 199.52259827 10.36500549 C199.53934069 7.04117596 199.63112725 4.98196827 201.68345642 2.30039978 C204.52845801 0.08928651 205.95944913 -0.00590654 209.53125 -0.01757812 C210.63919922 -0.03018677 211.74714844 -0.04279541 212.88867188 -0.05578613 C214.08041016 -0.04768921 215.27214844 -0.03959229 216.5 -0.03125 C217.72783203 -0.0350769 218.95566406 -0.03890381 220.22070312 -0.04284668 C222.81641459 -0.04556842 225.41215336 -0.03818911 228.0078125 -0.02148438 C231.98499599 -0.00008075 235.96037282 -0.02127963 239.9375 -0.046875 C242.45833733 -0.04423177 244.97917353 -0.03910691 247.5 -0.03125 C248.69173828 -0.03934692 249.88347656 -0.04744385 251.11132812 -0.05578613 C252.77325195 -0.03687317 252.77325195 -0.03687317 254.46875 -0.01757812 C255.44263672 -0.01439575 256.41652344 -0.01121338 257.41992188 -0.00793457 C260.75830859 0.64928662 261.95392056 1.82316224 264 4.5 C264.28606766 7.29785832 264.34738917 9.70435405 264.22265625 12.484375 C264.20303052 14.07549689 264.18551978 15.66664602 264.16992188 17.2578125 C264.12459261 19.75214711 264.06279791 22.24258499 263.96264648 24.73535156 C263.29023527 34.6739277 263.29023527 34.6739277 267.34643555 43.26342773 C270.1891427 45.38927182 270.1891427 45.38927182 273.16894531 46.94604492 C280.66245047 51.05920121 285.34825405 58.55916831 289.375 65.875 C289.69686279 66.45064697 290.01872559 67.02629395 290.3503418 67.61938477 C296.36162202 79.2047323 296.39365125 91.05160133 296.1875 103.75 C296.17241456 105.38149796 296.15873304 107.01300953 296.14648438 108.64453125 C296.1138102 112.59669732 296.06224574 116.54819362 296 120.5 C297.36608398 120.53456299 297.36608398 120.53456299 298.75976562 120.56982422 C302 121.5 302 121.5 304.03710938 124.43408203 C304.66282349 125.73931761 305.26346223 127.05675663 305.84375 128.3828125 C306.17596558 129.09357941 306.50818115 129.80434631 306.85046387 130.53665161 C307.92324171 132.84799055 308.96225968 135.17274641 310 137.5 C310.71080161 139.05371855 311.42304257 140.60677942 312.13671875 142.15917969 C313.932315 146.08661279 315.69342728 150.0283348 317.43945312 153.97802734 C318.5217194 156.42408864 319.61211663 158.86642092 320.703125 161.30859375 C321.39631083 162.86957971 322.08903765 164.43076961 322.78125 165.9921875 C323.10613403 166.71912811 323.43101807 167.44606873 323.76574707 168.19503784 C326 173.26993358 326 173.26993358 326 175.5 C327.13018555 175.5093457 328.26037109 175.51869141 329.42480469 175.52832031 C333.62214421 175.56822392 337.81875104 175.63398326 342.015625 175.70751953 C343.83128439 175.7357271 345.64706652 175.75694274 347.46289062 175.77099609 C350.07485789 175.79242909 352.68534974 175.83907885 355.296875 175.890625 C356.10743347 175.89185364 356.91799194 175.89308228 357.75311279 175.89434814 C361.13132112 175.9819416 363.44722163 176.09412506 366.21465302 178.12609863 C368.56600548 181.25259386 368.502921 183.13538165 368.50793457 187.02832031 C368.51729451 188.00926603 368.51729451 188.00926603 368.52684355 189.01002884 C368.54278935 191.19976178 368.53016445 193.38838395 368.51757812 195.578125 C368.52299859 197.14856618 368.53012083 198.71900227 368.53881836 200.28942871 C368.55706383 204.55391389 368.54997927 208.81801227 368.53730202 213.08250427 C368.52718063 217.54362029 368.5365653 222.00470301 368.54284668 226.46582031 C368.55012561 233.95774283 368.54052898 241.44950767 368.52148438 248.94140625 C368.49971511 257.60524253 368.50676631 266.2687023 368.52879 274.93252945 C368.54693704 282.36873728 368.54950574 289.80483172 368.53903532 297.24105453 C368.53279654 301.6834302 368.53197525 306.12562885 368.54518127 310.56799316 C368.5567291 314.7443455 368.54873395 318.92021203 368.52560425 323.09651184 C368.52031139 324.62998141 368.52184083 326.16349181 368.53065491 327.69694519 C368.54157225 329.78907677 368.52789623 331.87964781 368.50793457 333.97167969 C368.50567242 335.72819855 368.50567242 335.72819855 368.50336456 337.52020264 C367.89184197 341.14026956 366.9161976 342.32835761 364 344.5 C360.68212891 344.95068359 360.68212891 344.95068359 356.7265625 344.8984375 C355.25650981 344.89880112 353.78645709 344.90022626 352.31640625 344.90258789 C351.16615967 344.89462692 351.16615967 344.89462692 349.99267578 344.88650513 C335.5150625 344.81615479 322.55631002 346.0336393 308.8046875 350.96508789 C307 351.5 307 351.5 304 351.5 C304.00888245 352.15510559 304.01776489 352.81021118 304.0269165 353.48516846 C304.1153505 360.29812909 304.1757181 367.11092693 304.21972656 373.92431641 C304.23985272 376.46767803 304.26715637 379.01099333 304.30175781 381.55419922 C304.3502297 385.20812404 304.37295916 388.86143756 304.390625 392.515625 C304.41127014 393.65429016 304.43191528 394.79295532 304.45318604 395.96612549 C304.45348816 397.02692322 304.45379028 398.08772095 304.45410156 399.18066406 C304.46298401 400.11332092 304.47186646 401.04597778 304.48101807 402.00689697 C304 404.5 304 404.5 302.61962891 406.80407715 C298.48514125 409.48070515 294.45352376 409.02375629 289.63183594 408.95410156 C288.57786621 408.95468567 287.52389648 408.95526978 286.43798828 408.95587158 C282.95311589 408.95308414 279.46909804 408.92195968 275.984375 408.890625 C273.56870999 408.88316499 271.15303894 408.87747093 268.73736572 408.87347412 C262.3782888 408.85819905 256.01957711 408.81890049 249.66064453 408.7746582 C243.17225078 408.73374624 236.68379804 408.71547178 230.1953125 408.6953125 C217.46338581 408.65240856 204.73171233 408.58490262 192 408.5 C192.0085199 409.11868958 192.01703979 409.73737915 192.02581787 410.37481689 C192.03244446 411.1860199 192.03907104 411.9972229 192.04589844 412.83300781 C192.05867828 414.03947968 192.05867828 414.03947968 192.07171631 415.27032471 C191.87981694 421.23651685 188.18398866 427.42611631 184 431.5 C176.8787143 436.47430501 169.40035411 439.42136219 161.19750977 442.12841797 C159.33450729 442.75883751 159.33450729 442.75883751 157.43386841 443.4019928 C154.05944877 444.54308019 150.68018327 445.66907615 147.29945493 446.7913146 C144.46508411 447.73367125 141.63319259 448.68336113 138.80123752 449.63294804 C132.11614916 451.87432473 125.42699469 454.10323103 118.73510742 456.32421875 C111.85598723 458.60758537 104.98408418 460.9117357 98.11538655 463.22624671 C92.1920834 465.22138213 86.26455846 467.20357992 80.33352131 469.17560494 C76.80240719 470.34980515 73.27303052 471.52864468 69.74765205 472.71996689 C65.81515097 474.04811433 61.87416913 475.34912866 57.93188477 476.64794922 C56.78089798 477.04060471 55.62991119 477.43326019 54.44404602 477.83781433 C43.97241617 481.24260391 35.1830431 481.19161286 24.56884766 478.58813477 C23.26175339 478.28330673 23.26175339 478.28330673 21.92825317 477.97232056 C19.08734214 477.30683242 16.25083925 476.62428175 13.4140625 475.94140625 C11.42419741 475.47188454 9.43407 475.00347326 7.44369507 474.53611755 C2.23172624 473.30930543 -2.97669368 472.06804903 -8.18444824 470.82348633 C-13.48947024 469.55817252 -18.79753714 468.30577597 -24.10546875 467.05273438 C-30.06925261 465.64446589 -36.0327153 464.23497133 -41.9937439 462.81507874 C-42.89884705 462.59968948 -43.8039502 462.38430023 -44.73648071 462.16238403 C-46.42069251 461.7613831 -48.10473624 461.3596753 -49.78857422 460.95710754 C-58.59556027 458.8611826 -65.86300263 457.84953453 -74.89453125 459.8125 C-76.18037109 460.08320313 -77.46621094 460.35390625 -78.79101562 460.6328125 C-80.79899278 461.06408873 -82.80620068 461.49862527 -84.81274414 461.93652344 C-102.63693287 465.80153498 -102.63693287 465.80153498 -108 464.5 C-110.3808458 462.84588213 -111.7986951 461.52127705 -112.37240124 458.61070251 C-112.52244301 456.1648644 -112.5402016 453.74730108 -112.51757812 451.296875 C-112.5245874 450.36637329 -112.53159668 449.43587158 -112.53881836 448.47717285 C-112.55642461 445.40114507 -112.54476606 442.32603715 -112.53125 439.25 C-112.53394415 437.11295393 -112.53782593 434.97590906 -112.54284668 432.83886719 C-112.5487453 428.35990733 -112.54016683 423.88126653 -112.52148438 419.40234375 C-112.49869487 413.65857548 -112.51181597 407.9155548 -112.53577423 402.17181396 C-112.55022221 397.75889443 -112.54563076 393.3461524 -112.53526306 388.93322754 C-112.53259302 386.81530672 -112.53587524 384.69736983 -112.54518127 382.57946777 C-112.55533018 379.62025205 -112.5398686 376.66225021 -112.51757812 373.703125 C-112.52567505 372.82611938 -112.53377197 371.94911377 -112.54211426 371.04553223 C-112.53083496 370.23805542 -112.51955566 369.43057861 -112.50793457 368.59863281 C-112.50642647 367.89957825 -112.50491837 367.20052368 -112.50336456 366.48028564 C-112 364.5 -112 364.5 -108 360.5 C-98.76 360.5 -89.52 360.5 -80 360.5 C-80 310.34 -80 260.18 -80 208.5 C-89.24 208.5 -98.48 208.5 -108 208.5 C-112 204.5 -112 204.5 -112.46313477 200.78686523 C-112.20736563 196.04833714 -110.55668253 192.17676181 -108.58984375 187.91015625 C-108.2306485 187.0998999 -107.87145325 186.28964355 -107.50137329 185.45483398 C-106.32777811 182.81735816 -105.13327857 180.18998334 -103.9375 177.5625 C-103.11924151 175.73870187 -102.30211373 173.91439605 -101.48608398 172.08959961 C-99.82053283 168.37223183 -98.14586596 164.65917228 -96.46386719 160.94921875 C-94.50106323 156.61687775 -92.56084469 152.27505799 -90.63310242 147.92701721 C-89.27086671 144.85623193 -87.90066876 141.78905149 -86.52810669 138.72286987 C-85.88668663 137.28780881 -85.247569 135.85171632 -84.61080933 134.4145813 C-83.72954966 132.4299672 -82.8371732 130.45075595 -81.94140625 128.47265625 C-81.44326416 127.36156494 -80.94512207 126.25047363 -80.43188477 125.10571289 C-79 122.5 -79 122.5 -76 120.5 C-72.86328125 120.3046875 -72.86328125 120.3046875 -69.3125 120.375 C-68.13300781 120.39304687 -66.95351562 120.41109375 -65.73828125 120.4296875 C-64.83464844 120.45289063 -63.93101563 120.47609375 -63 120.5 C-63.59748047 118.72109375 -63.59748047 118.72109375 -64.20703125 116.90625 C-72.27838875 92.47602584 -78.13391713 62.85063637 -66.57421875 38.49609375 C-63.96383214 33.86215163 -61.02847198 30.01200121 -57 26.5 C-56.236875 25.819375 -55.47375 25.13875 -54.6875 24.4375 C-42.91523535 15.95051851 -30.17927795 15.85834578 -16.36328125 17.89453125 C-13.86706404 18.34390833 -11.44226268 18.82605916 -9 19.5 C-8.97421875 18.46359375 -8.9484375 17.4271875 -8.921875 16.359375 C-8.86558049 14.98954199 -8.80823345 13.61975195 -8.75 12.25 C-8.73582031 11.56808594 -8.72164063 10.88617188 -8.70703125 10.18359375 C-8.54332756 6.8112978 -8.21660738 4.79571617 -6.203125 2.046875 C-3.87144375 0.4097371 -2.80977149 -0.04390268 0 0 Z " fill="#010000" transform="translate(128,15.5)"/>
<path d="M0 0 C16.22272972 -0.14134452 32.44525403 -0.24653684 48.66845417 -0.31087303 C56.20439277 -0.34156458 63.73994474 -0.38325914 71.27563477 -0.45263672 C77.85822376 -0.51320966 84.44053235 -0.5513275 91.02339238 -0.56453097 C94.49601927 -0.57222622 97.96784534 -0.58976317 101.44021034 -0.63438034 C120.13888378 -0.8473946 136.92900538 1.21976925 155 6 C156.85329704 6.46470154 158.70751924 6.9257347 160.56280518 7.38243103 C161.34332874 7.57467727 162.12385231 7.7669235 162.92802811 7.96499538 C163.67236477 8.14799222 164.41670143 8.33098906 165.18359375 8.51953125 C166.74547626 8.90546321 168.30732967 9.29151295 169.86914062 9.67773438 C170.62557861 9.86424561 171.3820166 10.05075684 172.16137695 10.24291992 C173.67924134 10.62275234 175.19491637 11.01144293 176.70825195 11.40893555 C192.17843348 15.44872983 205.39699543 15.40703555 222 16 C222 50.32 222 84.64 222 120 C212.76 120.33 203.52 120.66 194 121 C189.00065385 122.14391819 184.75635297 123.33156884 180 125 C176.51308404 126.00715378 173.00646675 126.93854858 169.5 127.875 C167.59353349 128.39243209 165.68728534 128.91066938 163.78125 129.4296875 C162.82347656 129.68975586 161.86570312 129.94982422 160.87890625 130.21777344 C156.25165642 131.47504179 151.62589363 132.73775285 147 134 C145.19010786 134.49350313 143.38021201 134.98699265 141.5703125 135.48046875 C137.66895319 136.54441266 133.76797596 137.60974639 129.8671875 138.67578125 C128.86429688 138.94970703 127.86140625 139.22363281 126.828125 139.50585938 C124.9035508 140.03155325 122.9790671 140.5575786 121.0546875 141.08398438 C120.1884375 141.32052734 119.3221875 141.55707031 118.4296875 141.80078125 C117.28862549 142.11269409 117.28862549 142.11269409 116.12451172 142.4309082 C115.42342285 142.6187085 114.72233398 142.80650879 114 143 C113.38919051 143.17356333 112.77838102 143.34712666 112.14906216 143.52594948 C109.86669697 144.02940463 107.82649859 144.13718765 105.49049377 144.15390015 C104.59190643 144.16250061 103.69331909 144.17110107 102.76750183 144.17996216 C101.30006279 144.18635208 101.30006279 144.18635208 99.80297852 144.19287109 C98.76679382 144.20104858 97.73060913 144.20922607 96.6630249 144.21765137 C93.23499121 144.24246016 89.80699869 144.25900656 86.37890625 144.2734375 C85.20833113 144.27876118 84.037756 144.28408485 82.83170891 144.28956985 C76.64033539 144.31627698 70.4489819 144.33566297 64.25756836 144.35009766 C59.12913262 144.36345932 54.00109265 144.391357 48.87280273 144.43212891 C42.68251317 144.48134409 36.49258373 144.50620456 30.30210686 144.51332474 C27.94214891 144.52005088 25.58219942 144.53530802 23.22235298 144.55921555 C19.92327773 144.59074166 16.62560158 144.59092265 13.32641602 144.58349609 C12.35014755 144.59990143 11.37387909 144.61630676 10.36802673 144.63320923 C5.75137964 144.59060529 3.67226097 144.50835408 -0.1063385 141.65103149 C-2 139 -2 139 -2.625 136 C-1.76454912 131.86983578 -0.32183152 130.58162924 3 128 C6.01696118 127.28247283 8.95146561 127.32930326 12.04125977 127.37231445 C13.3933403 127.36140778 13.3933403 127.36140778 14.7727356 127.35028076 C17.74602688 127.33170945 20.71811468 127.34774673 23.69140625 127.36328125 C25.75977148 127.3552416 27.82812843 127.34472377 29.89646912 127.33183289 C35.33823242 127.30327726 40.77961491 127.30271057 46.22143555 127.30969238 C54.93511718 127.3170148 63.64867546 127.28571466 72.362257 127.24724388 C75.40684074 127.23838186 78.45115951 127.24370008 81.4957428 127.25080872 C83.35987419 127.24742464 85.22400497 127.24367549 87.08813477 127.23950195 C88.3592083 127.24804451 88.3592083 127.24804451 89.65596008 127.25675964 C95.16048383 127.29832428 95.16048383 127.29832428 100 125 C101.38550197 122.22899606 101.1877467 120.0665294 101 117 C99.27773504 113.75150023 99.27773504 113.75150023 96 113 C94.2097661 112.90821819 92.41627284 112.8753506 90.62368774 112.87542725 C89.50770706 112.87286423 88.39172638 112.87030121 87.2419281 112.86766052 C85.40441734 112.87081017 85.40441734 112.87081017 83.52978516 112.87402344 C81.55018147 112.87115582 79.57057779 112.86828033 77.59097457 112.86510801 C75.46217371 112.86242705 73.33338084 112.86198305 71.2045784 112.86190033 C66.76707502 112.86075998 62.32965483 112.84792183 57.8921814 112.83233643 C57.14324226 112.82976357 56.39430312 112.82719072 55.62266886 112.8245399 C54.09120553 112.81927338 52.55974227 112.8139879 51.02827907 112.80868387 C40.69755069 112.77357229 30.36692582 112.74702313 20.03613281 112.74951172 C13.06723515 112.75110021 6.0986212 112.7350681 -0.87018549 112.69880509 C-4.55759873 112.6803429 -8.24453825 112.67100407 -11.93198776 112.68328094 C-16.04538325 112.69684342 -20.15767515 112.67179274 -24.27099609 112.64355469 C-25.4919548 112.65375137 -26.71291351 112.66394806 -27.97087097 112.67445374 C-37.15688884 112.56108582 -37.15688884 112.56108582 -40.25650024 109.64727783 C-42 107 -42 107 -42.625 104 C-41.98193662 100.91329579 -41.17312766 99.2143432 -38.87019539 97.04945946 C-34.53269328 94.61547174 -29.11599749 95.32571079 -24.28686523 95.37231445 C-22.99533539 95.36504333 -21.70380554 95.35777222 -20.37313843 95.35028076 C-17.56941546 95.33473617 -14.76629045 95.33487424 -11.96255302 95.34728432 C-7.52921678 95.36684115 -3.09641132 95.35161999 1.3368988 95.33183289 C8.34792834 95.3046975 15.35874123 95.30118956 22.36981291 95.30760592 C34.9284574 95.31855078 47.48703685 95.29395668 60.04561466 95.25385827 C64.45264716 95.24078286 68.85948136 95.23953062 73.26652348 95.2479912 C75.3469831 95.25074243 77.42738526 95.24910801 79.50784302 95.24560547 C82.04439762 95.2416443 84.58097781 95.24493265 87.11750793 95.25675964 C88.23486328 95.25282196 89.35221863 95.24888428 90.50343323 95.24482727 C91.4740397 95.24579061 92.44464617 95.24675394 93.44466496 95.24774647 C96.12706885 94.98768034 97.74534816 94.45551766 100 93 C101.38550197 90.22899606 101.1877467 88.0665294 101 85 C99.27773504 81.75150023 99.27773504 81.75150023 96 81 C94.00714237 80.9073485 92.0112761 80.87535118 90.01626587 80.87542725 C88.76565872 80.87286423 87.51505157 80.87030121 86.22654724 80.86766052 C84.83804314 80.86973048 83.44953911 80.87185323 82.06103516 80.87402344 C80.60074306 80.87262867 79.14045137 80.87072936 77.68016052 80.86836243 C74.53391825 80.86386478 71.38768903 80.86200933 68.24144363 80.86190033 C63.26626526 80.86076048 58.29116117 80.84792605 53.31600952 80.83233643 C52.4765213 80.82976357 51.63703307 80.82719072 50.77210581 80.8245399 C49.05543894 80.81927335 47.33877212 80.81398787 45.62210536 80.80868387 C34.03874879 80.77356414 22.45548454 80.74702347 10.87207031 80.74951172 C3.05938269 80.75109976 -4.75305177 80.73507848 -12.56565821 80.69880509 C-16.70018659 80.68033531 -20.83429222 80.67101091 -24.968853 80.68328094 C-28.8580302 80.69471099 -32.74645023 80.68303069 -36.63552666 80.65364647 C-38.06214084 80.64700183 -39.48882425 80.64887983 -40.915411 80.65994453 C-42.86434569 80.67380551 -44.8134329 80.65398146 -46.76229858 80.63250732 C-47.8525704 80.63104076 -48.94284222 80.6295742 -50.06615257 80.6280632 C-53.98836032 79.78841683 -55.50677018 78.07182886 -58 75 C-58.625 72 -58.625 72 -58 69 C-55.50760865 65.92931736 -53.99062511 64.21132604 -50.06894588 63.37473011 C-48.43548639 63.3744785 -48.43548639 63.3744785 -46.76902771 63.3742218 C-44.88682526 63.35562607 -44.88682526 63.35562607 -42.96659851 63.33665466 C-41.58376699 63.34809545 -40.20093923 63.35999748 -38.81811523 63.37231445 C-37.3558969 63.36713419 -35.893685 63.35973306 -34.43148804 63.35028076 C-31.28729138 63.3347278 -28.14362788 63.33488073 -24.99941826 63.34728432 C-20.02842284 63.36682839 -15.05790138 63.35162751 -10.08692932 63.33183289 C-2.22592287 63.30468992 5.63489037 63.30119101 13.49593443 63.30760592 C27.57769124 63.31854868 41.65939006 63.29397022 55.74108738 63.25385827 C60.68333797 63.24077693 65.62541175 63.23953419 70.56767094 63.2479912 C73.64020463 63.25161336 76.71269305 63.2473192 79.7852211 63.2411499 C81.21066008 63.24006353 82.63610648 63.24243127 84.06153297 63.2484951 C86.00634353 63.25637171 87.95119446 63.25094403 89.89601135 63.24482727 C91.52890531 63.24627227 91.52890531 63.24627227 93.19478703 63.24774647 C96.01309693 62.99884333 97.65286214 62.54944306 100 61 C101.38550197 58.22899606 101.1877467 56.0665294 101 53 C99.27773504 49.75150023 99.27773504 49.75150023 96 49 C94.2097661 48.90821819 92.41627284 48.8753506 90.62368774 48.87542725 C89.50770706 48.87286423 88.39172638 48.87030121 87.2419281 48.86766052 C85.40441734 48.87081017 85.40441734 48.87081017 83.52978516 48.87402344 C81.55018147 48.87115582 79.57057779 48.86828033 77.59097457 48.86510801 C75.46217371 48.86242705 73.33338084 48.86198305 71.2045784 48.86190033 C66.76707502 48.86075998 62.32965483 48.84792183 57.8921814 48.83233643 C57.14324226 48.82976357 56.39430312 48.82719072 55.62266886 48.8245399 C54.09120553 48.81927338 52.55974227 48.8139879 51.02827907 48.80868387 C40.69755069 48.77357229 30.36692582 48.74702313 20.03613281 48.74951172 C13.06723515 48.75110021 6.0986212 48.7350681 -0.87018549 48.69880509 C-4.55759873 48.6803429 -8.24453825 48.67100407 -11.93198776 48.68328094 C-16.04538325 48.69684342 -20.15767515 48.67179274 -24.27099609 48.64355469 C-25.4919548 48.65375137 -26.71291351 48.66394806 -27.97087097 48.67445374 C-37.15688884 48.56108582 -37.15688884 48.56108582 -40.25650024 45.64727783 C-42 43 -42 43 -42.625 40 C-41.7414355 35.7588904 -40.51126353 34.57275652 -37 32 C-33.01264188 31.25002184 -29.0683271 31.33070534 -25.02124023 31.37231445 C-23.20098831 31.36140778 -23.20098831 31.36140778 -21.34396362 31.35028076 C-18.71000714 31.33806568 -16.0778968 31.33486907 -13.44412041 31.34728432 C-9.27961185 31.36684878 -5.11566793 31.3516155 -0.95118713 31.33183289 C5.63485456 31.30470202 12.22066561 31.30118869 18.80675215 31.30760592 C30.60384094 31.31855203 42.40086048 31.2939486 54.1978783 31.25385827 C58.33730241 31.24078639 62.47651541 31.23952848 66.61594975 31.2479912 C69.79418585 31.25246658 72.97240213 31.24478479 76.15063477 31.23950195 C77.87054375 31.24804451 77.87054375 31.24804451 79.62519836 31.25675964 C80.67524048 31.25282196 81.72528259 31.24888428 82.80714417 31.24482727 C84.17456174 31.24627227 84.17456174 31.24627227 85.56960392 31.24774647 C88.18331407 30.98131358 89.79350986 30.40886864 92 29 C93.38550197 26.22899606 93.1877467 24.0665294 93 21 C91.27773504 17.75150023 91.27773504 17.75150023 88 17 C85.72729431 16.90184926 83.45181723 16.86449512 81.17700195 16.8581543 C80.14223473 16.85294266 80.14223473 16.85294266 79.08656311 16.84762573 C77.58879208 16.8402772 76.09101023 16.834927 74.59322548 16.83133507 C72.2173499 16.8241555 69.84167917 16.80847629 67.46586609 16.78999329 C60.71075308 16.73760542 53.95575108 16.68959168 47.20043945 16.67407227 C43.06648921 16.66395312 38.9330533 16.6345274 34.79930687 16.59275246 C33.22899465 16.58049065 31.65860961 16.57531235 30.08825111 16.57755089 C20.59600451 16.58774905 13.17582735 16.54549503 5.72265625 10 C5.17480469 9.34 4.62695312 8.68 4.0625 8 C3.49660156 7.34 2.93070312 6.68 2.34765625 6 C0.96431314 3.94703863 0.52957463 2.38821676 0 0 Z " fill="#F6CBA8" transform="translate(258,224)"/>
<path d="M0 0 C58.41 0 116.82 0 177 0 C178.98 4.62 180.96 9.24 183 14 C183.33 14.66 183.66 15.32 184 16 C182.6996582 16.01401855 182.6996582 16.01401855 181.37304688 16.02832031 C178.12224259 16.07262577 174.87234373 16.13436953 171.62207031 16.20751953 C170.22180039 16.23555071 168.82137749 16.25685316 167.42089844 16.27099609 C158.1736106 16.36993284 151.00483122 16.61423327 143.7578125 22.96484375 C143.21898437 23.61582031 142.68015625 24.26679688 142.125 24.9375 C141.29355469 25.91009766 141.29355469 25.91009766 140.4453125 26.90234375 C137.58369124 31.05556164 136.73582269 34.55059231 136.8125 39.5625 C136.81894531 40.49191406 136.82539063 41.42132813 136.83203125 42.37890625 C136.98246555 44.72638102 137.33839572 46.75054544 138 49 C136.824375 49.495 135.64875 49.99 134.4375 50.5 C128.65097029 53.38812584 124.87578787 57.90087222 121.5625 63.375 C120.02557554 70.54731415 120.41872014 77.52407665 124 84 C127.51983128 89.21574999 131.40812775 92.20406387 137 95 C136.95359375 95.90621094 136.9071875 96.81242187 136.859375 97.74609375 C136.59972852 106.50916243 136.73925621 113.37455789 142.87109375 120.03125 C148.01344449 124.77504426 152.4229496 127.17618825 159.51953125 127.4140625 C160.54111328 127.45273437 161.56269531 127.49140625 162.61523438 127.53125 C163.67033203 127.5621875 164.72542969 127.593125 165.8125 127.625 C166.88693359 127.66367187 167.96136719 127.70234375 169.06835938 127.7421875 C171.71207088 127.83618613 174.3557805 127.92184573 177 128 C176.95359375 128.83402344 176.9071875 129.66804687 176.859375 130.52734375 C176.58749238 139.00425546 176.95436388 145.59963169 182.87109375 152.03515625 C189.81067514 158.42376898 195.33325721 159.30305014 204.54394531 159.33813477 C205.6066716 159.34967087 206.66939789 159.36120697 207.764328 159.37309265 C211.28560887 159.40742774 214.80671328 159.42592284 218.328125 159.44140625 C219.53901543 159.44830915 220.74990585 159.45521206 221.99748993 159.46232414 C228.42589954 159.49819736 234.85422125 159.52170418 241.28271484 159.53540039 C247.85752094 159.55181098 254.43122515 159.61002093 261.00566483 159.67854404 C266.11253047 159.72382998 271.2191457 159.73693259 276.32619476 159.74201775 C278.74500971 159.74981193 281.16382107 159.76914381 283.58243561 159.80124092 C299.81113221 160.00212103 313.80661059 157.92422943 329.24658966 152.88175774 C333.60893616 151.48475101 338.02187784 150.27800787 342.4375 149.0625 C343.17971676 148.85236236 343.92193352 148.64222471 344.68664169 148.42571926 C349.76601956 147 349.76601956 147 352 147 C352 159.21 352 171.42 352 184 C338.65683879 184.11292158 325.31399447 184.20467094 311.97046375 184.25906086 C305.77464369 184.28516414 299.57916722 184.32057664 293.38354492 184.37719727 C287.40537319 184.43148929 281.42753214 184.46141503 275.44913292 184.47438622 C273.16731243 184.48363101 270.88551021 184.50168387 268.60383034 184.52865028 C265.40972283 184.564902 262.21698491 184.5699468 259.02270508 184.56762695 C258.07755539 184.58560333 257.1324057 184.60357971 256.15861511 184.62210083 C251.56860486 184.58598464 249.6721015 184.55322627 246.02055359 181.54753113 C245.02037956 180.28650322 245.02037956 180.28650322 244 179 C241.70954872 177.63994728 241.70954872 177.63994728 239.375 176.75 C238.61960937 176.43546875 237.86421875 176.1209375 237.0859375 175.796875 C227.44431313 172.11355783 218.86833651 174.74795427 209.25 177.3125 C206.85967905 177.9347629 204.46905488 178.5558622 202.078125 179.17578125 C200.50659668 179.59210815 200.50659668 179.59210815 198.90332031 180.0168457 C198.31814133 180.16350174 197.73296234 180.31015778 197.13005066 180.46125793 C195.4744401 180.88000246 193.82452251 181.32128256 192.17720032 181.77153015 C183.8017167 183.92446291 176.00963479 184.39833143 167.38671875 184.29296875 C166.03766865 184.28735427 164.68861231 184.28309297 163.33955383 184.28010559 C159.836215 184.26880205 156.33326588 184.23946552 152.83007812 184.20599365 C149.23638171 184.17497468 145.64262061 184.1615332 142.04882812 184.14648438 C135.03239533 184.11457719 128.01622348 184.06356328 121 184 C123.86051439 182.09299041 125.33942195 181.55817888 128.60546875 180.88671875 C129.50716797 180.69013672 130.40886719 180.49355469 131.33789062 180.29101562 C133.21657607 179.89313091 135.09677893 179.50233543 136.97851562 179.11914062 C144.42409866 177.47572237 150.43333087 175.10702053 155.375 169.125 C158.75411066 162.62671027 159.92087786 156.25333423 159 149 C156.64731504 141.70031802 151.81163722 136.49314729 145 133 C134.7681389 129.88975058 123.15568167 132.74213469 112.8125 134.25 C111.19080314 134.48080575 109.56905773 134.7112707 107.94726562 134.94140625 C98.35223276 136.31382249 88.78768674 137.82182795 79.23754883 139.47949219 C69.40863288 141.15941948 59.53319227 142.48015572 49.65313721 143.81771851 C38.92176833 145.27209289 28.23189969 146.85100677 17.58203125 148.83203125 C16.28458984 149.0640625 16.28458984 149.0640625 14.9609375 149.30078125 C14.23696777 149.43653564 13.51299805 149.57229004 12.76708984 149.7121582 C8.5331575 150.15258579 4.25677807 150 0 150 C0 100.5 0 51 0 0 Z " fill="#AC6542" transform="translate(64,224)"/>
<path d="M0 0 C118.14 0 236.28 0 358 0 C362.99722574 10.70834086 367.9500217 21.42436957 372.79125977 32.20214844 C373.56556877 33.9232749 374.34232459 35.64330236 375.12133789 37.36230469 C376.26205262 39.8797767 377.39551101 42.40039958 378.52734375 44.921875 C379.05218605 46.07487091 379.05218605 46.07487091 379.58763123 47.25115967 C382 52.65764871 382 52.65764871 382 56 C248.02 56 114.04 56 -24 56 C-23.25348289 52.26741447 -22.59785338 49.75431413 -21.09814453 46.39672852 C-20.51215988 45.07494347 -20.51215988 45.07494347 -19.91433716 43.72645569 C-19.49143402 42.78676437 -19.06853088 41.84707306 -18.6328125 40.87890625 C-18.19742157 39.90138901 -17.76203064 38.92387177 -17.31344604 37.91673279 C-16.3928168 35.85220064 -15.46975466 33.7887519 -14.54443359 31.72631836 C-13.13264564 28.5795416 -11.72776079 25.42975893 -10.32421875 22.27929688 C-9.42748479 20.27065406 -8.53036215 18.26218471 -7.6328125 16.25390625 C-7.21395782 15.31623917 -6.79510315 14.37857208 -6.36355591 13.41249084 C-5.96659515 12.52814865 -5.5696344 11.64380646 -5.16064453 10.73266602 C-4.64221481 9.57614281 -4.64221481 9.57614281 -4.11331177 8.39625549 C-2.80015183 5.5698534 -1.3937674 2.78753479 0 0 Z " fill="#D38F72" transform="translate(61,152)"/>
<path d="M0 0 C3.88190348 -0.2612122 5.63563304 0.08972574 8.83984375 2.359375 C10.83984375 5.234375 10.83984375 5.234375 11.46484375 8.234375 C10.61770789 12.30062712 9.00701569 13.58260488 5.83984375 16.234375 C3.27576533 17.18596559 1.02352469 17.86895893 -1.6171875 18.4453125 C-2.70802895 18.7058416 -2.70802895 18.7058416 -3.82090759 18.97163391 C-6.20108479 19.53516844 -8.58633922 20.07249228 -10.97265625 20.609375 C-12.640618 20.9983927 -14.30825821 21.38879138 -15.97558594 21.78051758 C-29.1824618 24.86355049 -42.43754029 27.73657037 -55.69140625 30.609375 C-62.93803939 32.18374748 -70.18186064 33.76508191 -77.41015625 35.421875 C-78.44624023 35.64770264 -79.48232422 35.87353027 -80.54980469 36.10620117 C-87.30146227 37.5671112 -87.30146227 37.5671112 -92.16015625 42.234375 C-92.76621054 45.87070075 -92.63176961 47.51752269 -90.59765625 50.609375 C-87.22961209 52.85473777 -85.15510919 52.6406414 -81.16015625 52.234375 C-80.00515625 51.88375 -78.85015625 51.533125 -77.66015625 51.171875 C-71.63090004 49.55689566 -66.54078857 51.25689388 -60.87890625 53.52734375 C-59.71383545 53.99035889 -58.54876465 54.45337402 -57.34838867 54.93041992 C-56.13127197 55.4226001 -54.91415527 55.91478027 -53.66015625 56.421875 C-52.39787445 56.92441902 -51.13525867 57.42612498 -49.87231445 57.92700195 C-44.6412721 60.00634605 -39.4218417 62.11080002 -34.234375 64.296875 C-33.55761719 64.57893799 -32.88085938 64.86100098 -32.18359375 65.15161133 C-30.49766244 65.85894022 -28.81876256 66.58296789 -27.140625 67.30859375 C-19.38363843 69.71803781 -12.24081748 67.1819188 -4.66015625 65.171875 C-2.12838934 64.51908262 0.40419421 63.86945093 2.9375 63.22265625 C3.58964981 63.05594421 4.24179962 62.88923218 4.91371155 62.71746826 C11.83717028 60.95945052 18.80351409 59.40404779 25.77734375 57.859375 C37.72745353 55.20082156 49.63441064 52.38805005 61.52734375 49.484375 C62.30866669 49.29369446 63.08998962 49.10301392 63.89498901 48.90655518 C72.08861685 46.90494096 80.27685209 44.88746577 88.44506836 42.78393555 C93.43739982 41.63827971 96.55441058 41.54221868 101.08984375 43.984375 C104.94416971 47.13791443 106.65313569 48.55400247 107.21484375 53.609375 C106.73616767 58.23657713 105.63797179 61.67217702 102.05613327 64.78404713 C99.62364734 66.37585276 97.3844271 67.26541321 94.62921143 68.18962097 C93.57509064 68.54713943 92.52096985 68.9046579 91.43490601 69.27301025 C90.28366241 69.65495544 89.13241882 70.03690063 87.94628906 70.43041992 C86.72960541 70.84050797 85.51292175 71.25059601 84.2593689 71.67311096 C80.92684916 72.79580855 77.59118916 73.90887672 74.25465488 75.0195787 C71.46569936 75.9488336 68.67822159 76.88247855 65.8907001 77.8160246 C59.31097171 80.01937398 52.72857679 82.21461757 46.14453125 84.4050293 C39.36277251 86.66139159 32.58592338 88.93205522 25.81129766 91.2097351 C19.98641905 93.16748913 14.15847124 95.11589893 8.32802272 97.05700189 C4.84953964 98.21520536 1.37234127 99.37694121 -2.10189056 100.54784203 C-5.97983737 101.85430857 -9.86400057 103.14124187 -13.74902344 104.42651367 C-14.8921701 104.81453156 -16.03531677 105.20254944 -17.21310425 105.60232544 C-26.20018044 108.54677775 -32.84447914 108.84648638 -42.1015625 106.58203125 C-42.85025101 106.40664825 -43.59893951 106.23126526 -44.37031555 106.05056763 C-46.82309605 105.47413254 -49.27277342 104.8854917 -51.72265625 104.296875 C-53.44720927 103.88945227 -55.17198568 103.48297407 -56.89697266 103.07739258 C-60.49516657 102.23065273 -64.09235763 101.37982015 -67.68896484 100.52636719 C-75.63349513 98.64526601 -83.59115571 96.821248 -91.54806519 94.99337769 C-94.72502726 94.2633512 -97.90168336 93.53201138 -101.07795715 92.79899597 C-102.57121299 92.45461079 -104.06468861 92.11117707 -105.55839539 91.76875305 C-109.32051145 90.90358934 -113.07449 90.01388769 -116.82128906 89.08447266 C-117.58224884 88.89814774 -118.34320862 88.71182281 -119.12722778 88.51985168 C-120.56092646 88.16777425 -121.99311421 87.80945481 -123.42330933 87.44340515 C-129.93964857 85.85292377 -135.64558549 85.94057469 -142.171875 87.328125 C-143.25919922 87.55371094 -144.34652344 87.77929688 -145.46679688 88.01171875 C-147.14032227 88.36943359 -147.14032227 88.36943359 -148.84765625 88.734375 C-151.07999174 89.20662436 -153.31304014 89.67551959 -155.546875 90.140625 C-156.52873779 90.35009766 -157.51060059 90.55957031 -158.5222168 90.77539062 C-161.16015625 91.234375 -161.16015625 91.234375 -165.16015625 91.234375 C-165.16015625 68.134375 -165.16015625 45.034375 -165.16015625 21.234375 C-156.58015625 20.904375 -148.00015625 20.574375 -139.16015625 20.234375 C-126.18624799 18.82998287 -113.38848191 17.00963104 -100.53979492 14.7902832 C-91.12906745 13.17953466 -81.68244653 11.88135539 -72.21801758 10.62915039 C-67.02532515 9.93589375 -61.85989153 9.21169142 -56.7109375 8.2421875 C-48.82059254 6.75811459 -40.85475649 5.79191273 -32.8984375 4.734375 C-26.40323534 3.8583098 -19.95171413 2.89755828 -13.5144043 1.66259766 C-9.02543141 0.84608221 -4.52851367 0.49133964 0 0 Z " fill="#F5CAA7" transform="translate(197.16015625,370.765625)"/>
<path d="M0 0 C0 3.63 0 7.26 0 11 C-1.5675 11.0825 -3.135 11.165 -4.75 11.25 C-8.10221969 11.59661762 -9.7524588 11.84086637 -12.625 13.6875 C-14.44797485 16.75341224 -14.58514474 18.48913155 -14 22 C-12.54742245 24.32065108 -12.54742245 24.32065108 -10 26 C-7.08733257 26.37365963 -4.56285321 26.5147565 -1.65625 26.4609375 C-0.85014282 26.46002106 -0.04403564 26.45910461 0.78649902 26.4581604 C2.48777163 26.45212883 4.18903383 26.436396 5.89013672 26.41162109 C8.49095894 26.37512686 11.09035475 26.37060178 13.69140625 26.37109375 C15.34636645 26.36126139 17.00131702 26.34960387 18.65625 26.3359375 C19.43238647 26.33371185 20.20852295 26.33148621 21.00817871 26.32919312 C26.32146033 26.25223393 26.32146033 26.25223393 31 24 C32.38550197 21.22899606 32.1877467 19.0665294 32 16 C30.27773504 12.75150023 30.27773504 12.75150023 27 12 C25.10787263 11.77820215 23.21115528 11.59385985 21.3125 11.4375 C19.559375 11.293125 17.80625 11.14875 16 11 C16 7.37 16 3.74 16 0 C23.421875 -2.24609375 23.421875 -2.24609375 26 -3 C26.64195312 -3.19078125 27.28390625 -3.3815625 27.9453125 -3.578125 C36.51450604 -5.33757919 45.49074821 -4.62526378 53 0 C60.96715216 6.8193421 62.94775038 15.98024531 64 26 C65.3455158 46.43792106 59.82833645 63.36853271 53 83 C23.3 83 -6.4 83 -37 83 C-54.78369384 31.8718802 -54.78369384 31.8718802 -43.7109375 8.25 C-33.34926834 -8.59463863 -16.28457798 -4.68260009 0 0 Z " fill="#E9413E" transform="translate(120,53)"/>
<path d="M0 0 C8.88824341 8.18377893 13.03287958 17.38819247 15.62890625 29.0703125 C15.62890625 39.3003125 15.62890625 49.5303125 15.62890625 60.0703125 C-16.05109375 60.0703125 -47.73109375 60.0703125 -80.37109375 60.0703125 C-80.37109375 16.37357955 -80.37109375 16.37357955 -66.80859375 1.8203125 C-47.62337089 -16.32474768 -20.32664272 -16.54260544 0 0 Z " fill="#D9DBDD" transform="translate(392.37109375,75.9296875)"/>
<path d="M0 0 C5.65641622 2.61065364 7.86301648 6.38904841 10 12 C18.05480951 38.74063313 4.83198115 74.50405656 -3 98 C-31.71 98 -60.42 98 -90 98 C-81 79 -81 79 -78 74 C-74.94722355 75.43407684 -72.26958348 77.13098069 -69.515625 79.07421875 C-68.66226563 79.65880859 -67.80890625 80.24339844 -66.9296875 80.84570312 C-65.14830545 82.07007869 -63.37728168 83.30966788 -61.6171875 84.56445312 C-56.03667677 88.41209083 -56.03667677 88.41209083 -49.484375 89.08203125 C-45.76341461 88.32774304 -45.76341461 88.32774304 -44 85 C-43.4161804 82.0850745 -43.4161804 82.0850745 -44 79 C-48.22216915 73.91062184 -53.77481945 70.69795898 -59.3125 67.1875 C-60.24384766 66.59001953 -61.17519531 65.99253906 -62.13476562 65.37695312 C-64.41963407 63.91229387 -66.70804543 62.45353561 -69 61 C-67.79085472 57.73037245 -66.48511999 55.02079998 -64.3984375 52.23046875 C-63.90859375 51.56982422 -63.41875 50.90917969 -62.9140625 50.22851562 C-62.40617187 49.55498047 -61.89828125 48.88144531 -61.375 48.1875 C-60.6015625 47.14819336 -60.6015625 47.14819336 -59.8125 46.08789062 C-58.54657074 44.38826337 -57.27394735 42.69362565 -56 41 C-52.3032773 42.33452879 -49.37561501 43.98822434 -46.19921875 46.29296875 C-45.30396484 46.92267578 -44.40871094 47.55238281 -43.48632812 48.20117188 C-41.6226575 49.52381878 -39.7683736 50.85979387 -37.92382812 52.20898438 C-32.21895464 56.32071734 -32.21895464 56.32071734 -25.45703125 57.11328125 C-21.76376924 56.31944695 -21.76376924 56.31944695 -20 53 C-19.4161804 50.0850745 -19.4161804 50.0850745 -20 47 C-24.22216915 41.91062184 -29.77481945 38.69795898 -35.3125 35.1875 C-36.24384766 34.59001953 -37.17519531 33.99253906 -38.13476562 33.37695312 C-40.41963407 31.91229387 -42.70804543 30.45353561 -45 29 C-38.75511268 16.11537667 -14.91491399 -2.92971525 0 0 Z " fill="#E9A52D" transform="translate(283,38)"/>
<path d="M0 0 C10.56 0 21.12 0 32 0 C32 5.94 32 11.88 32 18 C29.69 17.67 27.38 17.34 25 17 C23.45855583 16.91837692 21.91469559 16.8696018 20.37109375 16.8671875 C19.56349609 16.86589844 18.75589844 16.86460938 17.92382812 16.86328125 C16.6930957 16.86908203 16.6930957 16.86908203 15.4375 16.875 C14.2009668 16.86919922 14.2009668 16.86919922 12.93945312 16.86328125 C11.72999023 16.86521484 11.72999023 16.86521484 10.49609375 16.8671875 C9.41606079 16.86887939 9.41606079 16.86887939 8.31420898 16.87060547 C5.52171519 17.02674237 2.75880121 17.5401998 0 18 C0 12.06 0 6.12 0 0 Z " fill="#3296E7" transform="translate(344,32)"/>
<path d="M0 0 C6.27 0 12.54 0 19 0 C19 5.28 19 10.56 19 16 C11.74 16 4.48 16 -3 16 C-1.35 14.35 0.3 12.7 2 11 C2.66907376 6.41206562 1.78534518 4.46336295 0 0 Z " fill="#EEC4A2" transform="translate(461,208)"/>
</svg>
